<svg width="128" height="128" viewBox="0 0 128 128" fill="none" xmlns="http://www.w3.org/2000/svg">
  <defs>
    <linearGradient id="grad1" x1="0%" y1="0%" x2="100%" y2="100%">
      <stop offset="0%" style="stop-color:#6366f1;stop-opacity:1" />
      <stop offset="100%" style="stop-color:#818cf8;stop-opacity:1" />
    </linearGradient>
  </defs>
  <!-- 背景圆 -->
  <circle cx="64" cy="64" r="60" fill="url(#grad1)"/>
  <!-- Q 字母 -->
  <path d="M64 28C47.4 28 34 41.4 34 58C34 74.6 47.4 88 64 88C70.8 88 77.1 85.8 82.2 82L90 90L96 84L88.2 76C91.8 70.9 94 64.7 94 58C94 41.4 80.6 28 64 28ZM64 38C75.1 38 84 46.9 84 58C84 69.1 75.1 78 64 78C52.9 78 44 69.1 44 58C44 46.9 52.9 38 64 38Z" fill="white"/>
  <!-- 闪电符号 (代表速度) -->
  <path d="M68 48L58 62H66L62 76L76 58H66L68 48Z" fill="white" opacity="0.9"/>
</svg>
